<?xml version="1.0" encoding="UTF-8" standalone="no"?>
<!DOCTYPE svg PUBLIC "-//W3C//DTD SVG 1.0//EN" "http://www.w3.org/TR/2001/REC-SVG-20010904/DTD/svg10.dtd">
<svg
   xmlns:svg="http://www.w3.org/2000/svg"
   xmlns="http://www.w3.org/2000/svg"
   version="1.0"
   width="167.62393"
   height="35.449772"
   id="svg1919">
  <defs
     id="defs1921" />
  <g
     transform="translate(-239.0452,-394.6373)"
     id="layer1">
    <g
       transform="matrix(1.249992,0,0,-1.249992,-47.79048,943.4338)"
       style="font-style:normal;font-variant:normal;font-weight:normal;font-stretch:normal;letter-spacing:normal;word-spacing:normal;text-anchor:start;fill:none;fill-opacity:1;stroke:black;stroke-linecap:butt;stroke-linejoin:miter;stroke-miterlimit:10.43299961;stroke-dasharray:none;stroke-dashoffset:0;stroke-opacity:1"
       id="g10"
       xml:space="preserve">
<path
   d="M 298.46,438.92 L 354.73,439.04 L 354.73,439.04 C 355.15,439.04 355.59,438.98 355.95,438.81 C 356.27,438.65 356.55,438.38 356.75,438.09 L 356.75,438.09 L 363.31,428.03 L 363.31,428.03 C 363.38,427.91 363.45,427.75 363.48,427.62 C 363.55,427.45 363.55,426.74 363.55,426.56 L 363.55,426.56 L 363.57,417.15 L 363.57,417.15 C 363.57,416.74 363.45,416.29 363.13,416.03 C 362.79,415.74 362.28,415.68 361.84,415.68 L 361.84,415.68 L 351.38,415.68 L 351.38,415.68 C 351.39,415.88 351.4,416.18 351.38,416.39 C 351.19,419.46 348.54,421.74 345.45,421.77 C 342.31,421.81 339.54,419.54 339.32,416.41 C 339.32,416.21 339.32,415.91 339.32,415.72 L 339.32,415.72 L 311.69,415.75 L 311.69,415.75 C 311.69,415.89 311.69,416.1 311.68,416.25 C 311.48,419.32 308.8,421.55 305.72,421.56 C 302.66,421.56 300.05,419.3 299.73,416.25 C 299.71,416.1 299.7,415.88 299.7,415.72 L 299.7,415.72 L 294.92,415.68 L 294.92,415.68 C 294.61,415.67 294.3,415.82 294.06,416.04 C 293.81,416.31 293.67,416.7 293.67,417.07 L 293.67,417.07 L 293.62,426.16 L 293.62,426.16 C 293.62,426.38 293.63,426.63 293.66,426.84 C 293.68,427.16 293.76,427.69 293.84,427.97 L 293.84,427.97 L 296.22,437.71 L 296.22,437.71 C 296.31,438.13 296.66,438.49 297.05,438.67 C 297.48,438.88 298.01,438.92 298.46,438.92 z "
   style="fill:black;fill-rule:nonzero;stroke-width:0"
   id="path12" />
<path
   d="M 305.75,420.64 L 306.01,420.63 L 306.26,420.62 L 306.51,420.58 L 306.75,420.54 L 306.99,420.48 L 307.23,420.42 L 307.46,420.34 L 307.69,420.25 L 307.9,420.15 L 308.12,420.04 L 308.33,419.92 L 308.53,419.79 L 308.72,419.65 L 308.91,419.51 L 309.09,419.35 L 309.26,419.19 L 309.42,419.01 L 309.58,418.83 L 309.73,418.65 L 309.87,418.45 L 309.99,418.25 L 310.11,418.04 L 310.22,417.83 L 310.32,417.61 L 310.41,417.38 L 310.49,417.15 L 310.56,416.92 L 310.61,416.68 L 310.65,416.43 L 310.69,416.18 L 310.7,415.93 L 310.71,415.68 C 310.71,412.93 308.49,410.7 305.75,410.7 C 303.02,410.7 300.79,412.9 300.78,415.64 C 300.76,418.4 303,420.64 305.75,420.64 z "
   style="fill:black;fill-rule:nonzero;stroke-width:0"
   id="path14" />
<path
   d="M 345.45,420.73 L 345.7,420.72 L 345.96,420.7 L 346.21,420.66 L 346.45,420.61 L 346.7,420.55 L 346.93,420.48 L 347.16,420.4 L 347.39,420.31 L 347.61,420.2 L 347.82,420.09 L 348.03,419.96 L 348.23,419.83 L 348.42,419.68 L 348.61,419.53 L 348.78,419.37 L 348.95,419.2 L 349.12,419.02 L 349.27,418.83 L 349.41,418.64 L 349.55,418.44 L 349.67,418.23 L 349.79,418.02 L 349.9,417.8 L 349.99,417.57 L 350.08,417.34 L 350.15,417.11 L 350.22,416.86 L 350.27,416.62 L 350.31,416.37 L 350.34,416.12 L 350.35,415.86 L 350.36,415.6 C 350.31,412.89 348.1,410.69 345.38,410.68 C 342.62,410.68 340.36,412.88 340.33,415.63 C 340.29,418.47 342.61,420.76 345.45,420.73 z "
   style="fill:black;fill-rule:nonzero;stroke-width:0"
   id="path16" />
<path
   d="M 239.04,420.91 L 239.3,420.9 L 239.55,420.88 L 239.81,420.85 L 240.06,420.81 L 240.3,420.75 L 240.54,420.68 L 240.78,420.6 L 241.01,420.51 L 241.23,420.4 L 241.45,420.29 L 241.66,420.17 L 241.86,420.04 L 242.06,419.89 L 242.25,419.74 L 242.43,419.58 L 242.61,419.42 L 242.77,419.24 L 242.93,419.06 L 243.08,418.86 L 243.22,418.67 L 243.35,418.46 L 243.47,418.25 L 243.58,418.03 L 243.68,417.81 L 243.77,417.58 L 243.85,417.35 L 243.92,417.11 L 243.97,416.87 L 244.02,416.62 L 244.05,416.37 L 244.07,416.12 L 244.07,415.87 C 244.15,413.06 241.92,410.68 239.04,410.68 C 236.23,410.68 234,412.99 234,415.87 C 234,418.61 236.3,420.91 239.04,420.91 z "
   style="fill:black;fill-rule:nonzero;stroke-width:0"
   id="path18" />
<path
   d="M 274.96,420.9 L 275.23,420.9 L 275.49,420.87 L 275.75,420.84 L 276.01,420.79 L 276.26,420.73 L 276.51,420.66 L 276.75,420.58 L 276.99,420.49 L 277.22,420.38 L 277.45,420.26 L 277.67,420.14 L 277.88,420 L 278.09,419.85 L 278.29,419.69 L 278.47,419.53 L 278.66,419.35 L 278.83,419.17 L 278.99,418.98 L 279.15,418.78 L 279.29,418.57 L 279.43,418.36 L 279.55,418.14 L 279.66,417.91 L 279.77,417.68 L 279.86,417.44 L 279.94,417.2 L 280,416.95 L 280.06,416.7 L 280.1,416.44 L 280.13,416.18 L 280.14,415.91 L 280.14,415.64 C 280.07,412.91 277.77,410.75 275.03,410.75 C 272.22,410.75 269.92,412.91 269.84,415.72 C 269.77,418.52 272.08,420.9 274.96,420.9 z "
   style="fill:black;fill-rule:nonzero;stroke-width:0"
   id="path20" />
<path
   d="M 288.07,421.54 L 280,421.54 L 280.73,420.61 L 287.35,420.46 L 287.35,418.59 L 282.52,416.86 L 282.52,416.86 C 282.52,416.79 282.6,415.71 282.6,415.64 L 282.6,415.64 L 281.3,415.64 L 281.3,415.64 C 281.3,415.71 281.3,415.86 281.3,415.86 C 281.01,419.24 278.42,422.12 275.04,422.12 C 271.65,422.19 268.92,419.38 268.63,416.07 C 268.63,415.93 268.63,415.78 268.56,415.71 L 268.56,415.71 L 245.16,415.78 L 245.16,415.78 C 245.16,415.86 245.16,416 245.16,416.07 C 245.23,419.38 242.35,421.9 239.04,421.9 C 235.8,421.9 233.07,419.31 232.93,416.07 C 232.93,415.93 232.93,415.78 232.93,415.71 L 232.93,415.71 L 229.9,415.71 L 229.97,416.43 L 229.97,416.43 C 229.9,416.5 229.75,416.5 229.61,416.64 C 229.47,416.79 229.47,417.01 229.47,417.08 L 229.47,417.08 L 229.47,417.73 L 229.47,417.73 C 229.47,417.8 229.47,418.16 229.54,418.23 C 229.61,418.38 229.83,418.38 229.97,418.38 L 229.97,418.38 L 230.69,418.38 L 231.41,425.36 L 231.41,425.36 C 231.41,425.64 231.55,426.01 231.77,426.22 C 232.06,426.51 232.64,426.65 232.71,426.65 L 232.71,426.65 L 233.57,426.73 L 235.73,431.33 L 235.73,431.33 C 236.16,432.2 237.6,433.21 238.83,433.21 L 238.83,433.21 L 245.88,433.21 L 245.81,420.54 L 268.92,420.46 L 269.78,421.4 L 246.6,421.47 L 246.75,438.96 L 288.07,439.04 L 288.07,421.54 z "
   style="fill:black;fill-rule:nonzero;stroke-width:0"
   id="path22" />
<polygon
   points="297.41,436.85 299.49,436.86 297.14,427.38 295.08,427.38 297.41,436.85 "
   style="fill:white;fill-rule:nonzero;stroke:white;stroke-width:0"
   id="polygon24" />
<polygon
   points="301.01,436.88 307.37,436.91 307.44,427.39 298.69,427.36 301.01,436.88 "
   style="fill:white;fill-rule:nonzero;stroke:white;stroke-width:0"
   id="polygon26" />
<polygon
   points="308.75,436.91 315.88,436.91 315.82,427.38 308.79,427.38 308.75,436.91 "
   style="fill:white;fill-rule:nonzero;stroke:white;stroke-width:0"
   id="polygon28" />
<polygon
   points="317.21,436.91 324.23,436.91 324.24,427.38 317.21,427.38 317.21,436.91 "
   style="fill:white;fill-rule:nonzero;stroke:white;stroke-width:0"
   id="polygon30" />
<polygon
   points="325.67,436.91 332.8,436.88 332.89,427.36 325.71,427.36 325.67,436.91 "
   style="fill:white;fill-rule:nonzero;stroke:white;stroke-width:0"
   id="polygon32" />
<polygon
   points="334.19,436.88 341.51,436.91 341.6,427.34 334.31,427.36 334.19,436.88 "
   style="fill:white;fill-rule:nonzero;stroke:white;stroke-width:0"
   id="polygon34" />
<polygon
   points="342.93,436.91 350.08,436.91 350.14,427.43 343.02,427.36 342.93,436.91 "
   style="fill:white;fill-rule:nonzero;stroke:white;stroke-width:0"
   id="polygon36" />
<polygon
   points="351.54,436.91 355.9,436.91 361.88,427.43 351.56,427.43 351.54,436.91 "
   style="fill:white;fill-rule:nonzero;stroke:white;stroke-width:0"
   id="polygon38" />
<path
   d="M 305.75,417.81 L 305.85,417.81 L 305.96,417.8 L 306.07,417.79 L 306.17,417.77 L 306.27,417.74 L 306.37,417.71 L 306.47,417.68 L 306.56,417.64 L 306.66,417.6 L 306.74,417.55 L 306.83,417.5 L 306.92,417.44 L 307,417.38 L 307.08,417.32 L 307.15,417.25 L 307.22,417.18 L 307.29,417.11 L 307.36,417.03 L 307.42,416.95 L 307.47,416.86 L 307.53,416.78 L 307.58,416.69 L 307.62,416.6 L 307.66,416.5 L 307.7,416.4 L 307.73,416.31 L 307.76,416.2 L 307.78,416.1 L 307.79,416 L 307.8,415.89 L 307.81,415.78 L 307.81,415.68 C 307.8,414.56 306.89,413.65 305.77,413.65 C 304.65,413.64 303.73,414.54 303.69,415.65 C 303.66,416.82 304.58,417.8 305.75,417.81 z "
   style="fill:white;fill-rule:nonzero;stroke:white;stroke-width:0"
   id="path40" />
<path
   d="M 345.43,417.83 L 345.54,417.83 L 345.65,417.82 L 345.76,417.8 L 345.86,417.78 L 345.97,417.76 L 346.07,417.73 L 346.17,417.69 L 346.27,417.65 L 346.36,417.61 L 346.45,417.56 L 346.54,417.5 L 346.63,417.44 L 346.71,417.38 L 346.79,417.32 L 346.87,417.25 L 346.94,417.17 L 347.01,417.1 L 347.07,417.01 L 347.13,416.93 L 347.19,416.84 L 347.24,416.75 L 347.29,416.66 L 347.33,416.57 L 347.37,416.47 L 347.4,416.37 L 347.43,416.27 L 347.46,416.16 L 347.47,416.06 L 347.49,415.95 L 347.49,415.84 L 347.5,415.73 L 347.49,415.62 C 347.43,414.55 346.5,413.75 345.43,413.75 C 344.33,413.74 343.38,414.54 343.3,415.62 C 343.22,416.83 344.21,417.85 345.43,417.83 z "
   style="fill:white;fill-rule:nonzero;stroke:white;stroke-width:0"
   id="path42" />
<path
   d="M 239.04,417.88 L 239.14,417.88 L 239.25,417.87 L 239.35,417.85 L 239.46,417.84 L 239.56,417.81 L 239.66,417.79 L 239.75,417.75 L 239.85,417.72 L 239.94,417.67 L 240.03,417.63 L 240.12,417.58 L 240.2,417.53 L 240.28,417.47 L 240.36,417.41 L 240.44,417.34 L 240.51,417.28 L 240.58,417.2 L 240.65,417.13 L 240.71,417.05 L 240.77,416.97 L 240.82,416.89 L 240.87,416.81 L 240.92,416.72 L 240.96,416.63 L 241,416.54 L 241.03,416.45 L 241.06,416.36 L 241.08,416.26 L 241.1,416.16 L 241.11,416.06 L 241.12,415.96 L 241.12,415.86 C 241.12,414.64 240.26,413.7 239.11,413.7 C 237.88,413.63 236.95,414.64 236.95,415.79 C 236.95,416.94 237.88,417.88 239.04,417.88 z "
   style="fill:white;fill-rule:nonzero;stroke:white;stroke-width:0"
   id="path44" />
<path
   d="M 275.03,417.95 L 275.14,417.95 L 275.26,417.94 L 275.37,417.92 L 275.47,417.9 L 275.58,417.87 L 275.68,417.84 L 275.78,417.8 L 275.87,417.76 L 275.96,417.71 L 276.05,417.66 L 276.14,417.6 L 276.22,417.54 L 276.3,417.48 L 276.38,417.41 L 276.45,417.33 L 276.52,417.26 L 276.59,417.18 L 276.65,417.09 L 276.71,417 L 276.76,416.91 L 276.81,416.82 L 276.86,416.72 L 276.9,416.62 L 276.93,416.52 L 276.96,416.42 L 276.99,416.31 L 277.01,416.21 L 277.03,416.1 L 277.04,415.99 L 277.05,415.87 L 277.05,415.76 L 277.05,415.64 C 277.05,414.57 276.11,413.7 275.03,413.7 C 273.88,413.7 272.94,414.49 272.87,415.64 C 272.8,416.87 273.8,417.95 275.03,417.95 z "
   style="fill:white;fill-rule:nonzero;stroke:white;stroke-width:0"
   id="path46" />
<polygon
   points="239.47,431.26 243.14,431.19 243.14,426.65 237.31,426.73 239.47,431.26 "
   style="fill:white;fill-rule:nonzero;stroke:white;stroke-width:0"
   id="polygon48" />
<polygon
   points="236.52,431.26 238.1,431.26 236.01,426.65 234.5,426.65 236.52,431.26 "
   style="fill:white;fill-rule:nonzero;stroke:white;stroke-width:0"
   id="polygon50" />
</g>  </g>
</svg>
